<svg xmlns="http://www.w3.org/2000/svg" xmlns:xlink="http://www.w3.org/1999/xlink" viewBox="0,0,256,256" width="1600px" height="1600px"><defs><linearGradient x1="32.5" y1="4.133" x2="32.5" y2="26.221" gradientUnits="userSpaceOnUse" id="color-1"><stop offset="0" stop-color="#ffffff" stop-opacity="0"></stop><stop offset="1" stop-color="#ffffff" stop-opacity="0"></stop></linearGradient><linearGradient x1="11.091" y1="16.09" x2="20.16" y2="25.16" gradientUnits="userSpaceOnUse" id="color-2"><stop offset="0" stop-color="#ffffff" stop-opacity="0"></stop><stop offset="1" stop-color="#ffffff" stop-opacity="0"></stop></linearGradient><linearGradient x1="7.772" y1="32.098" x2="23.178" y2="47.504" gradientUnits="userSpaceOnUse" id="color-3"><stop offset="0" stop-color="#ffffff" stop-opacity="0"></stop><stop offset="1" stop-color="#ffffff" stop-opacity="0"></stop></linearGradient></defs><g fill="none" fill-rule="nonzero" stroke="none" stroke-width="1" stroke-linecap="butt" stroke-linejoin="none" stroke-miterlimit="10" stroke-dasharray="" stroke-dashoffset="0" font-family="none" font-weight="none" font-size="none" text-anchor="none" style="mix-blend-mode: normal"><path transform="scale(5.33333,5.33333)" d="M45,5v14c0,0.552 -0.448,1 -1,1h-11l-5.204,5.204c-0.294,0.293 -0.796,0.085 -0.796,-0.33v-4.874h-5.01894c0.01255,0.16502 0.01894,0.33176 0.01894,0.5c0,3.58985 -2.91015,6.5 -6.5,6.5c-3.58985,0 -6.5,-2.91015 -6.5,-6.5c0,-3.58985 2.91015,-6.5 6.5,-6.5c1.74649,0 3.33211,0.6888 4.5,1.80957v-10.80957c0,-0.552 0.448,-1 1,-1h23c0.552,0 1,0.448 1,1zM27,43.5c0,0.552 -0.448,1 -1,1h-21c-0.552,0 -1,-0.448 -1,-1v-2.619c0,-6.332 4.954,-11.763 11.285,-11.879c6.449,-0.118 11.715,5.075 11.715,11.498z" id="strokeMainSVG" fill="#ffffff" stroke="#ffffff" stroke-linejoin="round"></path><g transform="scale(5.33333,5.33333)" stroke="none" stroke-linejoin="miter"><path d="M44,4h-23c-0.552,0 -1,0.448 -1,1v14c0,0.552 0.448,1 1,1h6v4.874c0,0.415 0.502,0.623 0.796,0.33l5.204,-5.204h11c0.552,0 1,-0.448 1,-1v-14c0,-0.552 -0.448,-1 -1,-1z" fill="url(#color-1)"></path><circle cx="15.5" cy="20.5" r="6.5" fill="url(#color-2)"></circle><path d="M27,40.5c0,-6.423 -5.266,-11.616 -11.715,-11.498c-6.331,0.116 -11.285,5.547 -11.285,11.879v2.619c0,0.552 0.448,1 1,1h21c0.552,0 1,-0.448 1,-1z" fill="url(#color-3)"></path></g></g></svg>