<!--?xml version="1.0" encoding="utf-8"?-->
<!-- Svg Vector Icons : http://www.onlinewebfonts.com/icon -->

<svg version="1.1" xmlns="http://www.w3.org/2000/svg" xmlns:xlink="http://www.w3.org/1999/xlink" x="0px" y="0px" viewBox="0 0 256 256" enable-background="new 0 0 256 256" xml:space="preserve">
<metadata> Svg Vector Icons : http://www.onlinewebfonts.com/icon </metadata>
<g><g><g><path fill="#ffffff" data-title="Layer 0" xs="0" d="M128,248.5l-37.1-64.2H44.6c-19.1,0-34.6-14-34.6-31.4V38.8C10,21.5,25.5,7.5,44.6,7.5h166.8c19.1,0,34.6,14.1,34.6,31.4V153c0,17.3-15.5,31.4-34.6,31.4h-46.3L128,248.5z M44.6,24.8c-9.5,0-17.2,6.3-17.2,14V153c0,7.7,7.7,14,17.2,14h56.3l27,46.8l27-46.8h56.4c9.5,0,17.2-6.3,17.2-14V38.8c0-7.7-7.8-14-17.2-14H44.6L44.6,24.8z"/></g><g></g><g></g><g></g><g></g><g></g><g></g><g></g><g></g><g></g><g></g><g></g><g></g><g></g><g></g><g></g></g></g>
</svg>