<?xml version="1.0" encoding="iso-8859-1"?>
<!-- Generator: Adobe Illustrator 24.1.0, SVG Export Plug-In . SVG Version: 6.00 Build 0)  -->
<svg version="1.1" id="Layer_1" xmlns="http://www.w3.org/2000/svg" xmlns:xlink="http://www.w3.org/1999/xlink" x="0px" y="0px"
	 viewBox="0 0 48 48" style="enable-background:new 0 0 48 48;" xml:space="preserve">
<linearGradient id="SVGID_1_" gradientUnits="userSpaceOnUse" x1="8.3609" y1="27.3051" x2="30.308" y2="43.4816">
	<stop  offset="0" style="stop-color:#44D6F9"/>
	<stop  offset="1" style="stop-color:#0680D7"/>
</linearGradient>
<path style="fill:url(#SVGID_1_);" d="M31.776,38.16c0-5.606-18.238-5.605-22.169-14.546C9.221,25.109,9,26.583,9,28
	c0,8.284,6.716,15,15,15c1.466,0,2.878-0.22,4.217-0.612C30.353,41.425,31.776,40.045,31.776,38.16z"/>
<linearGradient id="SVGID_2_" gradientUnits="userSpaceOnUse" x1="11.5759" y1="18.6332" x2="36.2664" y2="38.0261">
	<stop  offset="0" style="stop-color:#A579DC"/>
	<stop  offset="1" style="stop-color:#624695"/>
</linearGradient>
<path style="fill:url(#SVGID_2_);" d="M31.776,38.16c0,1.884-1.423,3.265-3.559,4.228c3.562-1.042,6.571-3.371,8.499-6.445
	c0.567-1.357,0.909-2.726,0.909-3.983c0-9.091-22.3-7.132-22.3-17.127c0-1.257,0.3-2.537,0.588-3.479
	c-2.802,3.737-5.226,8.076-6.306,12.259C13.537,32.556,31.776,32.555,31.776,38.16z"/>
<linearGradient id="SVGID_3_" gradientUnits="userSpaceOnUse" x1="22.4564" y1="4.1501" x2="32.6731" y2="18.5293">
	<stop  offset="0" style="stop-color:#FAD402"/>
	<stop  offset="0.357" style="stop-color:#F8C503"/>
	<stop  offset="1" style="stop-color:#F4A107"/>
</linearGradient>
<path style="fill:url(#SVGID_3_);" d="M26.975,3.23c-0.005-0.009-0.011-0.014-0.017-0.023C26.973,3.138,27,3.074,27,3
	c0-0.552-0.448-1-1-1c-0.235,0-0.404,0.079-0.464,0.113c-1.213,0.67-2.603,1.729-4.046,3.046c-0.448,0.785-0.841,1.807-0.841,3.044
	c0,5.414,9.676,5.485,15.12,10.763C31.679,13.615,25.349,10.334,26.975,3.23z"/>
<linearGradient id="SVGID_4_" gradientUnits="userSpaceOnUse" x1="18.0657" y1="8.8556" x2="38.1208" y2="33.2622">
	<stop  offset="0" style="stop-color:#EC81A3"/>
	<stop  offset="1" style="stop-color:#DD386D"/>
</linearGradient>
<path style="fill:url(#SVGID_4_);" d="M15.912,11.355c-0.287,0.941-0.588,2.222-0.588,3.479c0,9.995,22.3,8.036,22.3,17.127
	c0,1.257-0.342,2.626-0.909,3.983C38.16,33.64,39,30.92,39,28c0-3.791-1.389-6.622-3.231-9.033
	c-5.444-5.278-15.12-5.349-15.12-10.763c0-1.237,0.393-2.26,0.841-3.044C19.64,6.847,17.701,8.969,15.912,11.355z"/>
</svg>