<svg width="" height="" viewBox="0 0 768 768" fill="none" xmlns="http://www.w3.org/2000/svg">
<g clip-path="url(#clip0_21043_133073)">
<path d="M694.752 575.229H73.2481C59.9681 575.229 49.3441 564.605 49.3441 551.325V81.2128C49.3441 63.6832 63.6865 49.3408 81.2161 49.3408H686.784C704.314 49.3408 718.656 63.6832 718.656 81.2128V551.325C718.656 564.605 708.032 575.229 694.752 575.229Z" fill="url(#paint0_linear_21043_133073)"/>
<path d="M734.592 575.229H33.408C15.8784 575.229 1.53601 560.886 1.53601 543.357V527.421H766.464V543.357C766.464 560.886 752.122 575.229 734.592 575.229Z" fill="#184F85"/>
<path opacity="0.02" d="M465.274 115.741H175.238C130.618 115.741 94.496 151.863 94.496 196.483V575.229H546.016V196.483C546.016 151.863 509.894 115.741 465.274 115.741Z" fill="black"/>
<path opacity="0.02" d="M465.274 118.397H175.239C134.867 118.397 102.464 150.8 102.464 191.171V575.229H538.048V191.171C538.048 150.8 505.645 118.397 465.274 118.397Z" fill="black"/>
<path opacity="0.02" d="M465.274 121.053H175.238C139.648 121.053 110.432 150.269 110.432 185.859V575.229H530.08V185.859C530.08 150.269 500.864 121.053 465.274 121.053Z" fill="black"/>
<path opacity="0.02" d="M465.274 129.021H175.238C143.898 129.021 118.4 154.519 118.4 185.859V575.229H522.112V185.859C522.112 154.519 496.615 129.021 465.274 129.021Z" fill="black"/>
<path opacity="0.02" d="M465.274 136.989H175.239C148.147 136.989 126.368 158.768 126.368 185.859V575.229H514.144V185.859C514.144 158.768 492.365 136.989 465.274 136.989Z" fill="black"/>
<path opacity="0.02" d="M465.274 144.957H175.238C152.928 144.957 134.336 163.549 134.336 185.859V575.229H506.176V185.859C506.176 163.549 487.584 144.957 465.274 144.957Z" fill="black"/>
<path opacity="0.02" d="M465.274 152.925H175.238C157.178 152.925 142.304 167.798 142.304 185.859V575.229H498.208V185.859C498.208 167.798 483.334 152.925 465.274 152.925Z" fill="black"/>
<path opacity="0.05" d="M465.274 134.333H175.238C158.771 134.333 144.96 148.144 144.96 164.611V575.229H495.552V164.611C495.552 148.144 481.741 134.333 465.274 134.333Z" fill="black"/>
<path opacity="0.1" d="M465.274 134.333H175.239C159.834 134.333 147.616 146.551 147.616 161.955V575.229H492.896V161.955C492.896 146.551 480.679 134.333 465.274 134.333Z" fill="black"/>
<path d="M490.24 644.285V693.686C490.24 707.497 479.616 718.653 465.805 718.653H174.707C161.427 718.653 150.272 707.497 150.272 693.686V644.285L320.256 544.95L490.24 644.285Z" fill="#184F85"/>
<path d="M150.272 219.325V159.299C150.272 145.488 160.896 134.333 174.707 134.333H466.336C479.616 134.333 490.771 145.488 490.771 159.299V219.325L320.256 320.253L150.272 219.325Z" fill="#50E6FF"/>
<path d="M490.24 389.309L320.256 422.774L150.272 389.309V208.701H490.24V389.309Z" fill="#35C1F1"/>
<path d="M490.24 549.731L320.256 591.165L150.272 549.731V383.997H490.24V549.731Z" fill="#1B9DE2"/>
<path d="M490.24 538.045H150.272V644.285H490.24V538.045Z" fill="#006CBF"/>
<path d="M256.512 182.141C262.379 182.141 267.136 177.384 267.136 171.517C267.136 165.649 262.379 160.893 256.512 160.893C250.645 160.893 245.888 165.649 245.888 171.517C245.888 177.384 250.645 182.141 256.512 182.141Z" fill="#0C63AD"/>
<path d="M373.376 182.141H299.008C293.165 182.141 288.384 177.36 288.384 172.048C288.384 166.205 293.165 161.424 299.008 161.424H373.376C379.219 161.424 383.469 166.205 383.469 172.048C383.469 177.36 378.688 182.141 373.376 182.141Z" fill="#0C63AD"/>
</g>
<defs>
<linearGradient id="paint0_linear_21043_133073" x1="575.887" y1="647.558" x2="191.046" y2="-19.0061" gradientUnits="userSpaceOnUse">
<stop stop-color="#0C63AD"/>
<stop offset="1" stop-color="#1B9DE2"/>
</linearGradient>
<clipPath id="clip0_21043_133073">
<rect width="764.928" height="764.928" fill="white" transform="translate(1.53601 1.53583)"/>
</clipPath>
</defs>
</svg>
