<svg xmlns="http://www.w3.org/2000/svg" viewBox="0 0 33.78 31.77" id="screenshot"><g><g><path d="M24,21.7a5,5,0,0,0-1.65.29l-.15-.19-2.89-2.88L28.53,9.7a1.71,1.71,0,0,0-2.42-2.42L16.89,16.5,7.67,7.28A1.71,1.71,0,0,0,5.25,9.7l9.22,9.22L11.58,21.8l-.15.19a5,5,0,1,0,2.66,2.16l2.8-2.81,2.8,2.81A5,5,0,1,0,24,21.7Zm-14.22,8a3,3,0,1,1,3-3A3,3,0,0,1,9.78,29.71Zm14.22,0a3,3,0,1,1,3-3A3,3,0,0,1,24,29.71Z"></path><path d="M2.74,14.82V2.74H31V14.82h2.74V2.49A2.5,2.5,0,0,0,31.28,0H2.49A2.5,2.5,0,0,0,0,2.49V14.82Z"></path></g></g></svg>