<?xml version="1.0" encoding="iso-8859-1"?>
<!-- Generator: Adobe Illustrator 24.1.0, SVG Export Plug-In . SVG Version: 6.00 Build 0)  -->
<svg version="1.1" id="Layer_1" xmlns="http://www.w3.org/2000/svg" xmlns:xlink="http://www.w3.org/1999/xlink" x="0px" y="0px"
	 viewBox="0 0 48 48" style="enable-background:new 0 0 48 48;" xml:space="preserve">
<linearGradient id="SVGID_1_" gradientUnits="userSpaceOnUse" x1="32.012" y1="32.012" x2="15.8807" y2="15.8807">
	<stop  offset="0" style="stop-color:#FFFFFF"/>
	<stop  offset="0.2418" style="stop-color:#F2F2F2"/>
	<stop  offset="1" style="stop-color:#CCCCCC"/>
</linearGradient>
<circle style="fill:url(#SVGID_1_);" cx="24" cy="24" r="11.5"/>
<linearGradient id="SVGID_2_" gradientUnits="userSpaceOnUse" x1="17.4497" y1="17.4497" x2="28.9397" y2="28.9397">
	<stop  offset="0" style="stop-color:#0D61A9"/>
	<stop  offset="0.3633" style="stop-color:#0E5FA4"/>
	<stop  offset="0.7804" style="stop-color:#135796"/>
	<stop  offset="1" style="stop-color:#16528C"/>
</linearGradient>
<circle style="fill:url(#SVGID_2_);" cx="24" cy="24" r="7"/>
<g>
	<linearGradient id="SVGID_3_" gradientUnits="userSpaceOnUse" x1="5.3264" y1="5.3438" x2="38.082" y2="38.0994">
		<stop  offset="0" style="stop-color:#889097"/>
		<stop  offset="0.3312" style="stop-color:#848C94"/>
		<stop  offset="0.6688" style="stop-color:#78828B"/>
		<stop  offset="1" style="stop-color:#64717C"/>
	</linearGradient>
	<path style="fill:url(#SVGID_3_);" d="M43.407,19.243c-2.389-0.029-4.702-1.274-5.983-3.493c-1.233-2.136-1.208-4.649-0.162-6.693
		c-2.125-1.887-4.642-3.339-7.43-4.188C28.577,6.756,26.435,8,24,8s-4.577-1.244-5.831-3.131c-2.788,0.849-5.305,2.301-7.43,4.188
		c1.046,2.044,1.071,4.557-0.162,6.693c-1.281,2.219-3.594,3.464-5.983,3.493C4.22,20.77,4,22.358,4,24
		c0,1.284,0.133,2.535,0.364,3.752c2.469-0.051,4.891,1.208,6.213,3.498c1.368,2.37,1.187,5.204-0.22,7.345
		c2.082,1.947,4.573,3.456,7.34,4.375C18.827,40.624,21.221,39,24,39s5.173,1.624,6.303,3.971c2.767-0.919,5.258-2.428,7.34-4.375
		c-1.407-2.141-1.588-4.975-0.22-7.345c1.322-2.29,3.743-3.549,6.213-3.498C43.867,26.535,44,25.284,44,24
		C44,22.358,43.78,20.77,43.407,19.243z M24,34.5c-5.799,0-10.5-4.701-10.5-10.5c0-5.799,4.701-10.5,10.5-10.5S34.5,18.201,34.5,24
		C34.5,29.799,29.799,34.5,24,34.5z"/>
</g>
</svg>