<?xml version="1.0" encoding="iso-8859-1"?>
<!-- Generator: Adobe Illustrator 24.1.0, SVG Export Plug-In . SVG Version: 6.00 Build 0)  -->
<svg version="1.1" id="Layer_1" xmlns="http://www.w3.org/2000/svg" xmlns:xlink="http://www.w3.org/1999/xlink" x="0px" y="0px"
	 viewBox="0 0 48 48" style="enable-background:new 0 0 48 48;" xml:space="preserve">
<linearGradient id="SVGID_1_" gradientUnits="userSpaceOnUse" x1="12.9072" y1="6.3224" x2="36.9413" y2="30.3564">
	<stop  offset="0" style="stop-color:#D83B01"/>
	<stop  offset="1" style="stop-color:#B3350E"/>
</linearGradient>
<path style="fill:url(#SVGID_1_);" d="M20,3C13.181,3,9,5.555,9,8.5c0,1.933,1.567,3.5,3.5,3.5c2.077,0,5.919-2,10.5-2
	c7.907,0,11,6.419,11,11c0,4.036-3,9-9,9s-12-7-12-14c0-0.552-0.448-1-1-1s-1,0.448-1,1c0,8,5.839,18,15,18c5,0,14-4,14-13
	C40,8.346,29.035,3,20,3z"/>
<linearGradient id="SVGID_2_" gradientUnits="userSpaceOnUse" x1="8.7753" y1="28.3671" x2="16.9824" y2="36.5743">
	<stop  offset="0" style="stop-color:#199AE0"/>
	<stop  offset="1" style="stop-color:#0782D8"/>
</linearGradient>
<path style="fill:url(#SVGID_2_);" d="M17.697,28.803l-1.414,1.414c-0.905-0.905-2.155-1.464-3.536-1.464c-2.761,0-5,2.239-5,5
	s2.239,5,5,5c1.381,0,2.631-0.56,3.536-1.464l4.95-4.95L17.697,28.803z M12.747,36.753c-1.657,0-3-1.343-3-3s1.343-3,3-3
	s3,1.343,3,3S14.404,36.753,12.747,36.753z"/>
<radialGradient id="SVGID_3_" cx="15.6488" cy="25.007" r="19.5664" gradientUnits="userSpaceOnUse">
	<stop  offset="0.8048" style="stop-color:#9A9A9A"/>
	<stop  offset="0.8638" style="stop-color:#929292"/>
	<stop  offset="0.9526" style="stop-color:#7E7E7E"/>
	<stop  offset="1" style="stop-color:#707070"/>
</radialGradient>
<path style="fill:url(#SVGID_3_);" d="M31.994,14.506L17.697,28.803l3.536,3.536l12.675-12.675
	C33.697,17.954,33.087,16.119,31.994,14.506z"/>
<linearGradient id="SVGID_4_" gradientUnits="userSpaceOnUse" x1="18.4583" y1="31.4583" x2="29.5258" y2="42.5258">
	<stop  offset="0" style="stop-color:#32BDEF"/>
	<stop  offset="1" style="stop-color:#1EA2E4"/>
</linearGradient>
<path style="fill:url(#SVGID_4_);" d="M26,34v-2h-5v7c0,2.761,2.239,5,5,5s5-2.239,5-5S28.761,34,26,34z M26,42
	c-1.657,0-3-1.343-3-3s1.343-3,3-3s3,1.343,3,3S27.657,42,26,42z"/>
<linearGradient id="SVGID_5_" gradientUnits="userSpaceOnUse" x1="23.5" y1="6.906" x2="23.5" y2="32.0717">
	<stop  offset="0" style="stop-color:#C9C9C9"/>
	<stop  offset="1" style="stop-color:#B3B3B3"/>
</linearGradient>
<path style="fill:url(#SVGID_5_);" d="M26,5h-0.274C23.116,5,21,7.116,21,9.726V32h5V5z"/>
<circle style="fill:#FFFFFF;" cx="23.518" cy="26.5" r="0.907"/>
<path style="fill:#E6E6E6;" d="M24,5.336V19h2V5h-0.274C25.115,5,24.536,5.125,24,5.336z"/>
</svg>