<?xml version="1.0" encoding="iso-8859-1"?>
<!-- Generator: Adobe Illustrator 24.1.0, SVG Export Plug-In . SVG Version: 6.00 Build 0)  -->
<svg version="1.1" id="Layer_1" xmlns="http://www.w3.org/2000/svg" xmlns:xlink="http://www.w3.org/1999/xlink" x="0px" y="0px"
	 viewBox="0 0 48 48" style="enable-background:new 0 0 48 48;" xml:space="preserve">
<linearGradient id="SVGID_1_" gradientUnits="userSpaceOnUse" x1="16.414" y1="2.5623" x2="29.3619" y2="18.9305">
	<stop  offset="0" style="stop-color:#A1AAB3"/>
	<stop  offset="1" style="stop-color:#8F979E"/>
</linearGradient>
<path style="fill:url(#SVGID_1_);" d="M33,20H15V5c0-1.105,0.895-2,2-2h14c1.105,0,2,0.895,2,2V20z"/>
<linearGradient id="SVGID_2_" gradientUnits="userSpaceOnUse" x1="18.6381" y1="18.8576" x2="30.1349" y2="30.7508">
	<stop  offset="0" style="stop-color:#6D7479"/>
	<stop  offset="1" style="stop-color:#323538"/>
</linearGradient>
<path style="fill:url(#SVGID_2_);" d="M15,20h18v8c0,1.105-0.895,2-2,2H17c-1.105,0-2-0.895-2-2V20z"/>
<linearGradient id="SVGID_3_" gradientUnits="userSpaceOnUse" x1="22.8245" y1="23.3837" x2="25.4304" y2="26.9668">
	<stop  offset="0" style="stop-color:#E96120"/>
	<stop  offset="1" style="stop-color:#CF410B"/>
</linearGradient>
<circle style="fill:url(#SVGID_3_);" cx="24" cy="25" r="2.5"/>
<linearGradient id="SVGID_4_" gradientUnits="userSpaceOnUse" x1="24" y1="36.9852" x2="24" y2="44.014">
	<stop  offset="0" style="stop-color:#484B4F"/>
	<stop  offset="0.2296" style="stop-color:#656D75"/>
	<stop  offset="0.3672" style="stop-color:#727D86"/>
</linearGradient>
<path style="fill:url(#SVGID_4_);" d="M31,40h-5v-3h-4v3h-5c-0.552,0-1,0.448-1,1v2c0,0.552,0.448,1,1,1h14c0.552,0,1-0.448,1-1v-2
	C32,40.448,31.552,40,31,40z"/>
<linearGradient id="SVGID_5_" gradientUnits="userSpaceOnUse" x1="22.3059" y1="16.9773" x2="26.2962" y2="36.3585">
	<stop  offset="0" style="stop-color:#A1AAB3"/>
	<stop  offset="1" style="stop-color:#767D84"/>
</linearGradient>
<path style="fill:url(#SVGID_5_);" d="M35,17h-2v15c0,1.105-0.895,2-2,2H17c-1.105,0-2-0.895-2-2V17h-2c-0.552,0-1,0.448-1,1v14
	c0,2.761,2.239,5,5,5h14c2.761,0,5-2.239,5-5V18C36,17.448,35.552,17,35,17z"/>
</svg>